<svg xmlns="http://www.w3.org/2000/svg" viewBox="0 0 512 512">
  <defs>
    <linearGradient id="grad" x1="0%" y1="0%" x2="100%" y2="100%">
      <stop offset="0%" style="stop-color:#00f0ff;stop-opacity:1" />
      <stop offset="100%" style="stop-color:#ff00aa;stop-opacity:1" />
    </linearGradient>
  </defs>
  <rect width="512" height="512" rx="100" fill="#0a0a0f" />
  <path d="M384 192h-32v-32c0-35.3-28.7-64-64-64H128c-35.3 0-64 28.7-64 64v192c0 35.3 28.7 64 64 64h160c35.3 0 64-28.7 64-64v-32h32c35.3 0 64-28.7 64-64v-64c0-35.3-28.7-64-64-64zm0 128h-32v-96h32c17.7 0 32 14.3 32 32v64c0 17.7-14.3 32-32 32z" fill="url(#grad)" />
  <path d="M160 64c0-17.7 14.3-32 32-32s32 14.3 32 32M256 64c0-17.7 14.3-32 32-32s32 14.3 32 32" stroke="url(#grad)" stroke-width="24" stroke-linecap="round" />
</svg>
